<svg width="108" height="66" viewBox="0 0 108 66" xmlns="http://www.w3.org/2000/svg" xmlns:xlink="http://www.w3.org/1999/xlink"><defs><path id="path-1" d="M.065.732h106.253v47.83H.065z"/><path id="path-3" d="M.375.798h38.547V8.61H.375z"/><path id="path-5" d="M.464.798h16.733V8.61H.464z"/></defs><g id="Page-1" stroke="none" stroke-width="1" fill="none" fill-rule="evenodd"><g id="Landing-Page-(Wave)-Segue" transform="translate(-147 -20)"><g id="Leica_Biosystems_2018_cmyk.20180413131451408" transform="translate(147.74 19.533)"><g id="Group-5"><mask id="mask-2" fill="#fff"><use xlink:href="#path-1"/></mask><path d="M93.013 31.694c-.475 1.248-1.603 2.556-3.088 2.909-.77.06-1.545-.235-1.961-.89-.89-2.434.357-4.81 1.072-7.008.652-1.188 1.543-2.197 2.85-2.672 1.01-.178 1.841.296 2.315 1.01.832 2.375-.651 4.513-1.188 6.65zM39.739 23.5c.95-.358 2.612-.714 3.087.533.297 1.544-.415 3.088-1.722 4.098-1.247.712-2.791 1.068-4.337.771.654-1.958 1.249-4.095 2.972-5.402zm64.44 9.68c-1.128.592-2.672 1.484-3.92.533-.237-.356-.416-.713-.355-1.188l3.029-10.75c-2.14-.059-4.455-.117-6.711-.059l-.534 1.662a6.732 6.732 0 00-1.071-1.187c-2.318-1.662-5.642-1.127-8.078-.118-3.683 1.782-6.59 5.167-6.653 9.443-1.96 1.722-4.51 3.682-7.303 2.554-1.365-.77-1.307-2.612-1.07-4.04.416-2.255 1.13-4.752 3.387-5.76 1.484-.654 2.909.297 3.978 1.247.297-1.009.655-2.017.833-3.09-3.03-1.958-7.722-1.363-10.691.36-3.09 1.84-5.701 5.047-5.466 8.966-.533.535-1.187.952-1.84 1.307-1.01.477-2.495 1.308-3.564.297-.239-.357-.298-.77-.298-1.246.953-3.504 1.961-7.068 2.911-10.573-2.494 0-5.109-.06-7.483.06l-2.733 9.384c-2.02 1.365-4.276 2.319-6.592 2.909-2.257.535-5.167 1.01-7.068-.534-.535-.593-.713-1.426-.535-2.255 3.979.356 8.315-.182 10.81-3.09.713-1.128 1.248-2.734.653-4.098l-.594-.95c-3.088-2.792-8.551-2.198-12.176-.832-3.444 1.306-6.472 4.989-6.472 8.91.058 2.259 1.425 4.098 3.206 5.284 5.88 3.446 13.185.654 18.472-2.138.058.062.178.121.12.18.237 1.661 1.84 3.149 3.384 3.502 4.039.596 7.662-1.067 10.692-3.502 1.247 2.316 3.92 3.502 6.592 3.74l.058-.058c3.682.117 6.773-1.605 9.445-3.862.831 1.724 2.256 2.852 3.859 3.564 3.091 1.01 6.354 0 8.672-2.197.298.832 1.07 1.603 1.782 2.08 3.505 1.661 7.246-.416 9.917-2.197-.056-.774-.294-1.547-.593-2.259z" id="Fill-2" fill="#ED1B2E" mask="url(#mask-2)"/><path d="M4.398 40.544c-.475-.298-1.127-.772-1.127-1.424.06-.596.356-1.07.831-1.368 2.375-1.247 5.108.059 7.423.714l.416.18c-1.84 1.718-4.81 3.027-7.543 1.898zM31.542 6.81c.772-1.248 1.96-2.733 3.624-2.851.712.059 1.425 0 1.96.594 1.602 1.543 1.127 4.336.355 6.176-1.663 4.336-5.642 7.485-9.979 8.612 1.011-4.334 2.02-8.612 4.04-12.531zm74.181 32.904c-5.998 1.366-12.173 2.495-18.47 3.087-12.413.773-24.827 1.13-37.12.239-10.216-.713-19.838-2.852-29.223-5.76 3.088-4.515 4.217-9.92 5.88-15.147 5.406-.831 10.097-4.097 12.83-8.789 1.306-2.674 2.613-6.178 1.127-9.207-.475-.951-1.188-1.544-2.019-2.257C35.7-.08 31.482.692 28.631 2.532 21.98 6.037 20.97 13.52 19.068 19.874c-2.018.062-3.979-.534-5.76-.95-.356.655-.653 1.368-.771 2.079 1.9.655 3.8 1.308 5.938 1.424-.832 3.745-2.079 7.308-3.386 10.752-.415.712-.475 1.721-1.188 2.259-3.74-.891-8.611-2.137-12.175.057-1.13.831-1.782 2.022-1.723 3.386.18 1.841 1.367 3.205 2.97 4.04 5.048 2.434 11.166.712 15.324-2.318 3.207 1.129 6.356 2.258 9.622 3.208 10.037 2.672 20.372 5.047 31.42 4.69v.06c16.036-.06 31.834-2.495 46.74-6.353l.24-.178-.596-2.317z" id="Fill-4" fill="#ED1B2E" mask="url(#mask-2)"/></g><path d="M15.138 64.85h.887c.337 0 1.098-.01 1.098-1.078 0-.675-.253-1.087-1.056-1.087h-.929v2.165zm0-3.338h1.066c.35 0 .835-.23.835-.97 0-.56-.38-.973-.918-.973h-.983v1.943zm-1.595 4.51v-7.624h2.83c1.215 0 2.218.35 2.218 1.976 0 .875-.433 1.51-1.3 1.677v.022c1.13.16 1.427.887 1.427 1.931 0 1.934-1.679 2.018-2.356 2.018h-2.819z" id="Fill-6" fill="#ED1B2E"/><g id="Group-13" transform="translate(22.772 57.473)"><mask id="mask-4" fill="#fff"><use xlink:href="#path-3"/></mask><path id="Fill-7" fill="#ED1B2E" mask="url(#mask-4)" d="M.375 8.548H1.97V.925H.375z"/><path d="M10.05 4.737c0-1.953-.116-2.798-1.014-2.798-.897 0-1.014.845-1.014 2.798 0 1.954.117 2.798 1.014 2.798.898 0 1.014-.844 1.014-2.798zm-3.642 0c0-2.016 0-3.939 2.628-3.939 2.63 0 2.63 1.923 2.63 3.939 0 1.996 0 3.938-2.63 3.938-2.628 0-2.628-1.942-2.628-3.938z" id="Fill-9" fill="#ED1B2E" mask="url(#mask-4)"/><path d="M18.174 8.675c-1.974 0-2.343-1.16-2.26-2.48h1.596c0 .728.031 1.34.907 1.34.538 0 .802-.348.802-.866 0-1.373-3.209-1.457-3.209-3.727 0-1.194.57-2.144 2.514-2.144 1.551 0 2.322.698 2.217 2.291h-1.553c0-.57-.095-1.15-.74-1.15-.516 0-.822.286-.822.813 0 1.447 3.21 1.321 3.21 3.716 0 1.975-1.447 2.207-2.662 2.207" id="Fill-10" fill="#1A1919" mask="url(#mask-4)"/><path id="Fill-11" fill="#1A1919" mask="url(#mask-4)" d="M26.551 5.909L24.558.925h1.74l1.142 3.22 1.214-3.22h1.626l-2.132 4.984v2.64H26.55V5.91"/><path d="M36.262 8.675c-1.976 0-2.344-1.16-2.26-2.48h1.595c0 .728.03 1.34.908 1.34.538 0 .801-.348.801-.866 0-1.373-3.21-1.457-3.21-3.727 0-1.194.57-2.144 2.515-2.144 1.551 0 2.32.698 2.216 2.291h-1.552c0-.57-.094-1.15-.74-1.15-.517 0-.822.286-.822.813 0 1.447 3.21 1.321 3.21 3.716 0 1.975-1.447 2.207-2.66 2.207" id="Fill-12" fill="#1A1919" mask="url(#mask-4)"/></g><path id="Fill-14" fill="#1A1919" d="M70.546 58.398v1.266h-1.772v6.358H67.18v-6.358h-1.775v-1.266h5.141"/><path id="Fill-15" fill="#1A1919" d="M74.459 66.022v-7.624h4.16v1.171h-2.566v1.881h2.366v1.173h-2.366v2.227h2.651v1.172H74.46"/><g id="Group-19" transform="translate(82.414 57.473)"><mask id="mask-6" fill="#fff"><use xlink:href="#path-5"/></mask><path id="Fill-16" fill="#1A1919" mask="url(#mask-6)" d="M.464 8.55V.924H3.03L4.225 6.11h.02L5.51.925h2.481v7.624H6.439V2.668h-.02L4.952 8.549h-1.52L2.038 2.668h-.022v5.881H.464"/><path d="M14.536 8.675c-1.973 0-2.344-1.16-2.26-2.48h1.594c0 .728.03 1.34.908 1.34.54 0 .803-.348.803-.866 0-1.373-3.21-1.457-3.21-3.727 0-1.194.571-2.144 2.513-2.144 1.552 0 2.324.698 2.218 2.291H15.55c0-.57-.095-1.15-.74-1.15-.516 0-.823.286-.823.813 0 1.447 3.21 1.321 3.21 3.716 0 1.975-1.446 2.207-2.66 2.207" id="Fill-18" fill="#1A1919" mask="url(#mask-6)"/></g><path d="M62.485 14.054c.476.773.595 1.84.118 2.613-.889 1.605-2.91 1.96-4.572 1.841-1.188-.118-2.377-.533-3.088-1.544-.595-.83-.475-2.197.06-2.969 1.008-1.306 2.493-1.781 4.275-1.604 1.189.298 2.436.595 3.207 1.663" id="Fill-1" fill="#ED1B2E"/></g></g></g></svg>